<svg width="108" height="59" viewBox="0 0 108 59" fill="none" xmlns="http://www.w3.org/2000/svg">
<path d="M26.8484 47.4C24.4151 47.4 22.2484 46.9833 20.3484 46.15C18.4484 45.3167 16.9484 44.1833 15.8484 42.75C14.7484 41.2833 14.1318 39.65 13.9984 37.85H22.4484C22.5484 38.8167 22.9984 39.6 23.7984 40.2C24.5984 40.8 25.5818 41.1 26.7484 41.1C27.8151 41.1 28.6318 40.9 29.1984 40.5C29.7984 40.0667 30.0984 39.5167 30.0984 38.85C30.0984 38.05 29.6818 37.4667 28.8484 37.1C28.0151 36.7 26.6651 36.2667 24.7984 35.8C22.7984 35.3333 21.1318 34.85 19.7984 34.35C18.4651 33.8167 17.3151 33 16.3484 31.9C15.3818 30.7667 14.8984 29.25 14.8984 27.35C14.8984 25.75 15.3318 24.3 16.1984 23C17.0984 21.6667 18.3984 20.6167 20.0984 19.85C21.8318 19.0833 23.8818 18.7 26.2484 18.7C29.7484 18.7 32.4984 19.5667 34.4984 21.3C36.5318 23.0333 37.6984 25.3333 37.9984 28.2H30.0984C29.9651 27.2333 29.5318 26.4667 28.7984 25.9C28.0984 25.3333 27.1651 25.05 25.9984 25.05C24.9984 25.05 24.2318 25.25 23.6984 25.65C23.1651 26.0167 22.8984 26.5333 22.8984 27.2C22.8984 28 23.3151 28.6 24.1484 29C25.0151 29.4 26.3484 29.8 28.1484 30.2C30.2151 30.7333 31.8984 31.2667 33.1984 31.8C34.4984 32.3 35.6318 33.1333 36.5984 34.3C37.5984 35.4333 38.1151 36.9667 38.1484 38.9C38.1484 40.5333 37.6818 42 36.7484 43.3C35.8484 44.5667 34.5318 45.5667 32.7984 46.3C31.0984 47.0333 29.1151 47.4 26.8484 47.4ZM51.9293 23.75C52.9293 22.2167 54.1793 21.0167 55.6793 20.15C57.1793 19.25 58.846 18.8 60.6793 18.8V27.85H58.3293C56.196 27.85 54.596 28.3167 53.5293 29.25C52.4626 30.15 51.9293 31.75 51.9293 34.05V47H43.3793V19.1H51.9293V23.75ZM63.066 33C63.066 30.1333 63.5993 27.6167 64.666 25.45C65.766 23.2833 67.2493 21.6167 69.116 20.45C70.9827 19.2833 73.066 18.7 75.366 18.7C77.3327 18.7 79.0493 19.1 80.516 19.9C82.016 20.7 83.166 21.75 83.966 23.05V19.1H92.516V47H83.966V43.05C83.1327 44.35 81.966 45.4 80.466 46.2C78.9993 47 77.2827 47.4 75.316 47.4C73.0493 47.4 70.9827 46.8167 69.116 45.65C67.2493 44.45 65.766 42.7667 64.666 40.6C63.5993 38.4 63.066 35.8667 63.066 33ZM83.966 33.05C83.966 30.9167 83.366 29.2333 82.166 28C80.9994 26.7667 79.566 26.15 77.866 26.15C76.166 26.15 74.716 26.7667 73.516 28C72.3493 29.2 71.766 30.8667 71.766 33C71.766 35.1333 72.3493 36.8333 73.516 38.1C74.716 39.3333 76.166 39.95 77.866 39.95C79.566 39.95 80.9994 39.3333 82.166 38.1C83.366 36.8667 83.966 35.1833 83.966 33.05Z" fill="url(#paint0_linear_809_3920)"/>
<defs>
<linearGradient id="paint0_linear_809_3920" x1="0" y1="0" x2="75.8525" y2="87.0215" gradientUnits="userSpaceOnUse">
<stop stop-color="#111740"/>
<stop offset="1" stop-color="#4C74AC"/>
</linearGradient>
</defs>
</svg>
